#!OML:ASF Y:\EmotionMaleHayes\Project 1\Capture day 1\Session 1\Male1.ASF
:FULLY-SPECIFIED
:DEGREES
402
root -28.9796 16.8384 -7.80749 169.956 41.0365 163.015
lowerback 9.90673 -0.455542 -15.8603
upperback 3.96524 -1.66299 -2.38914
thorax -0.873062 -0.776047 6.51068
lowerneck -20.2864 -4.82341 -3.12983
upperneck 31.7217 -6.76404 5.37866
head 14.6875 -2.11196 1.59763
rclavicle -1.71738e-013 2.1916e-014
rhumerus -44.5231 0.615495 -83.9888
rradius 30.5948
rwrist 5.51579
rhand -12.0198 -28.3062
rfingers 7.12502
rthumb 14.0379 -57.8122
lclavicle -1.71738e-013 2.1916e-014
lhumerus -15.963 -19.2242 86.4839
lradius 40.8113
lwrist 7.4473
lhand -19.9276 -25.0056
lfingers 7.12502
lthumb 6.40971 4.87744
rfemur -27.3265 -9.07995 10.8171
rtibia 48.2828
rfoot -16.2738 -8.76998
rtoes 16.086
lfemur 11.9219 8.97729 -31.342
ltibia 1.01645
lfoot -13.7708 6.70516
ltoes -21.863
403
root -28.927 16.8195 -7.90087 170.232 41.4784 163.043
lowerback 9.57798 -0.527038 -15.7264
upperback 3.82707 -1.71573 -2.4035
thorax -0.837802 -0.804249 6.42067
lowerneck -20.2447 -4.90192 -3.27843
upperneck 31.599 -6.90826 5.59131
head 14.6491 -2.16881 1.68082
rclavicle 4.78388e-014 -4.87022e-015
rhumerus -45.108 -0.245884 -83.5215
rradius 30.7489
rwrist 5.56243
rhand -11.7971 -28.3354
rfingers 7.12502
rthumb 14.2525 -57.8264
lclavicle 4.78388e-014 -4.87022e-015
lhumerus -15.5469 -19.4952 86.1959
lradius 40.9627
lwrist 7.16303
lhand -19.8639 -25.3205
lfingers 7.12502
lthumb 6.47118 4.56063
rfemur -27.1934 -7.8703 11.6524
rtibia 44.7025
rfoot -16.1935 -9.6068
rtoes 18.5254
lfemur 12.0426 9.19948 -31.2737
ltibia 0.935971
lfoot -14.0425 6.84785
ltoes -20.8115
404
root -28.8726 16.8025 -7.99957 170.3 41.7104 163.037
lowerback 9.50623 -0.601789 -15.5596
upperback 3.71636 -1.80861 -2.45417
thorax -0.908293 -0.841513 6.28296
lowerneck -20.1059 -4.89575 -3.01449
upperneck 31.397 -6.97159 5.50342
head 14.5142 -2.18846 1.58454
rclavicle 5.75606e-014 2.11457e-014
rhumerus -45.678 -1.16825 -82.9802
rradius 31.09
rwrist 4.75463
rhand -10.749 -29.3581
rfingers 7.12502
rthumb 15.2623 -58.775
lclavicle 5.75606e-014 2.11457e-014
lhumerus -15.2605 -19.8564 85.9561
lradius 41.1998
lwrist 6.93014
lhand -19.7193 -25.3757
lfingers 7.12502
lthumb 6.61082 4.50114
rfemur -28.1296 -8.63736 12.3495
rtibia 43.4566
rfoot -16.8087 -9.10621
rtoes 20.7408
lfemur 12.4062 9.2535 -31.3206
ltibia 0.859982
lfoot -14.6852 6.73744
ltoes -19.945
405
root -28.8107 16.7843 -8.10233 170.021 41.5769 162.593
lowerback 9.46764 -0.79645 -15.857
upperback 3.66316 -2.08571 -2.5259
thorax -0.869341 -0.977972 6.39167
lowerneck -20.1345 -4.86108 -3.12477
upperneck 31.3197 -6.95244 5.69001
head 14.4996 -2.17198 1.68085
rclavicle -7.11773e-014 6.55989e-015
rhumerus -46.0636 -1.51099 -82.6945
rradius 30.965
rwrist 4.51567
rhand -10.3746 -30.2496
rfingers 7.12502
rthumb 15.6229 -59.6388
lclavicle -7.11773e-014 6.55989e-015
lhumerus -14.959 -20.0738 85.7516
lradius 41.451
lwrist 6.82603
lhand -19.8161 -25.3169
lfingers 7.12502
lthumb 6.51736 4.56286
rfemur -28.3323 -9.13634 12.4395
rtibia 41.2367
rfoot -17.2104 -9.00679
rtoes 25.2955
lfemur 12.832 9.1747 -31.8017
ltibia 0.882808
lfoot -14.9486 6.71513
ltoes -18.5703
406
root -28.7489 16.7638 -8.19945 169.788 41.6249 162.06
lowerback 9.28941 -0.948911 -16.2087
upperback 3.60675 -2.28531 -2.6048
thorax -0.769304 -1.08125 6.51003
lowerneck -20.1369 -4.83933 -2.86442
upperneck 31.0457 -6.94656 5.43538
head 14.3518 -2.19338 1.52515
rclavicle -5.18766e-014 5.83433e-014
rhumerus -46.3075 -1.73509 -82.4862
rradius 30.5907
rwrist 4.61587
rhand -9.92167 -31.1242
rfingers 7.12502
rthumb 16.0591 -60.4787
lclavicle -5.18766e-014 5.83433e-014
lhumerus -14.6018 -20.3498 85.4991
lradius 41.674
lwrist 6.80497
lhand -19.9912 -25.4061
lfingers 7.12502
lthumb 6.34835 4.47876
rfemur -28.5959 -9.60302 12.5207
rtibia 38.7104
rfoot -17.2858 -9.06387
rtoes 29.0139
lfemur 13.0926 9.08712 -32.3618
ltibia 0.910718
lfoot -17.8192 6.13258
ltoes -27.3998
407
root -28.6862 16.7488 -8.30094 169.635 41.3244 161.833
lowerback 9.33493 -1.16354 -16.432
upperback 3.59635 -2.59696 -2.53816
thorax -0.71651 -1.24156 6.72863
lowerneck -20.2374 -4.76521 -3.09574
upperneck 30.9655 -6.78773 5.50036
head 14.3423 -2.15084 1.61624
rclavicle 4.33475e-014 4.72611e-014
rhumerus -46.5256 -2.13043 -81.9687
rradius 30.2156
rwrist 4.65009
rhand -9.58124 -31.5076
rfingers 7.12502
rthumb 16.3869 -60.8354
lclavicle 4.33475e-014 4.72611e-014
lhumerus -14.2131 -20.3 85.4653
lradius 41.7401
lwrist 6.40473
lhand -19.8289 -25.5431
lfingers 7.12502
lthumb 6.50497 4.33697
rfemur -30.0132 -12.3285 13.1341
rtibia 38.8481
rfoot -17.7556 -8.99447
rtoes 24.624
lfemur 13.4804 9.12669 -32.577
ltibia 1.10338
lfoot -15.7191 7.03895
ltoes -24.1958
408
root -28.6223 16.7187 -8.39812 169.793 41.6022 161.444
lowerback 8.79624 -1.27079 -16.7441
upperback 3.45014 -2.68826 -2.4748
thorax -0.53252 -1.30408 6.95579
lowerneck -20.2138 -4.83617 -3.38159
upperneck 30.8394 -6.85317 5.66389
head 14.3057 -2.19874 1.71626
rclavicle -2.09594e-014 -3.08116e-014
rhumerus -46.7201 -2.55991 -81.4178
rradius 29.8892
rwrist 4.67995
rhand -9.60715 -31.4478
rfingers 7.12502
rthumb 16.3619 -60.7777
lclavicle -2.09594e-014 -3.08116e-014
lhumerus -13.8198 -20.044 85.43
lradius 41.6999
lwrist 5.73238
lhand -19.4179 -25.5871
lfingers 7.12502
lthumb 6.90177 4.28041
rfemur -28.0768 -10.1502 13.3602
rtibia 32.1324
rfoot -16.6061 -11.8143
rtoes 24.1269
lfemur 13.3589 9.69175 -32.7979
ltibia 1.29057
lfoot -15.947 6.79525
ltoes -25.6627
409
root -28.554 16.692 -8.49611 169.961 41.5042 161.288
lowerback 8.49208 -1.49125 -16.8642
upperback 3.34403 -2.94698 -2.47391
thorax -0.408333 -1.44071 7.02805
lowerneck -20.0104 -4.80398 -3.15234
upperneck 30.5785 -6.83922 5.49966
head 14.1265 -2.20543 1.60967
rclavicle -5.2181e-016 -6.07287e-014
rhumerus -46.8061 -3.02146 -81.022
rradius 29.4442
rwrist 4.91551
rhand -9.65502 -31.5589
rfingers 7.12502
rthumb 16.3158 -60.8925
lclavicle -5.2181e-016 -6.07287e-014
lhumerus -13.5081 -20.1374 85.2319
lradius 41.7162
lwrist 5.34504
lhand -19.2819 -25.6462
lfingers 7.12502
lthumb 7.033 4.21696
rfemur -30.4658 -13.4017 14.2449
rtibia 33.3384
rfoot -17.6984 -10.502
rtoes 22.4821
lfemur 13.4377 9.66234 -32.9623
ltibia 1.48368
lfoot -16.2143 6.72461
ltoes -26.4213
410
root -28.4856 16.6717 -8.59912 169.86 41.2449 161.084
lowerback 8.66039 -1.69629 -16.943
upperback 3.17147 -3.2826 -2.5322
thorax -0.606645 -1.58222 7.04076
lowerneck -19.7896 -4.74527 -2.88944
upperneck 30.4546 -6.7894 5.32951
head 14.0012 -2.18559 1.50629
rclavicle -7.68427e-014 2.82274e-014
rhumerus -47.1155 -3.5623 -80.6467
rradius 28.9583
rwrist 5.47808
rhand -9.96629 -31.3683
rfingers 7.12502
rthumb 16.0161 -60.7263
lclavicle -7.68427e-014 2.82274e-014
lhumerus -13.4238 -20.3796 85.0561
lradius 41.7167
lwrist 5.1377
lhand -19.2778 -25.8876
lfingers 7.12502
lthumb 7.03702 3.97542
rfemur -29.0781 -13.0581 14.324
rtibia 28.6441
rfoot -17.1474 -12.0444
rtoes 22.3479
lfemur 13.7894 9.4861 -33.2209
ltibia 1.68366
lfoot -16.5434 6.63137
ltoes -26.6068
411
root -28.4192 16.6472 -8.70324 169.662 41.2346 160.421
lowerback 8.68092 -1.74548 -17.3869
upperback 2.86322 -3.43568 -2.53345
thorax -0.885551 -1.62477 7.30032
lowerneck -19.7048 -4.81145 -2.97998
upperneck 30.5032 -6.81298 5.20286
head 14.0024 -2.22411 1.46862
rclavicle 1.5458e-013 8.04084e-014
rhumerus -47.6865 -3.90839 -80.1125
rradius 28.7006
rwrist 5.86983
rhand -10.4002 -31.055
rfingers 7.12502
rthumb 15.5983 -60.446
lclavicle 1.5458e-013 8.04084e-014
lhumerus -13.417 -20.6174 85.1899
lradius 41.67
lwrist 4.83136
lhand -19.2402 -26.1003
lfingers 7.12502
lthumb 7.07327 3.76151
rfemur -28.0489 -12.3587 14.0568
rtibia 24.0644
rfoot -16.7159 -13.2824
rtoes 24.6989
lfemur 13.8811 9.59499 -33.8584
ltibia 1.85987
lfoot -16.8654 6.34919
ltoes -25.1898
